<svg width="639" height="602" viewBox="0 0 639 602" fill="none" xmlns="http://www.w3.org/2000/svg">
<path d="M554.103 63.5157C519.703 4.7157 185.437 12.349 22.6032 23.5157C7.10318 93.1824 -22.5968 255.916 -17.3968 349.516C-10.8968 466.516 203.603 530.516 237.603 589.016C271.603 647.516 591.103 487.516 628.103 426.016C665.103 364.516 597.103 137.016 554.103 63.5157Z" fill="url(#paint0_linear)" fill-opacity="0.5"/>
<path d="M532.103 56.5157C497.703 -2.2843 163.437 5.34903 0.603176 16.5157C-14.8968 86.1824 -44.5968 248.916 -39.3968 342.516C-32.8968 459.516 181.603 523.516 215.603 582.016C249.603 640.516 569.103 480.516 606.103 419.016C643.103 357.516 575.103 130.016 532.103 56.5157Z" fill="url(#paint1_linear)" fill-opacity="0.5"/>
<path d="M491 47.7579C456.6 -11.0421 122.333 -3.40878 -40.5 7.75788C-56 77.4245 -85.7 240.158 -80.5 333.758C-74 450.758 140.5 514.758 174.5 573.258C208.5 631.758 528 471.758 565 410.258C602 348.758 534 121.258 491 47.7579Z" fill="url(#paint2_linear)" fill-opacity="0.5"/>
<defs>
<linearGradient id="paint0_linear" x1="62.1031" y1="15.5156" x2="485.103" y2="565.516" gradientUnits="userSpaceOnUse">
<stop offset="0.00609125" stop-color="#FF9B46"/>
<stop offset="1" stop-color="#FF9B46" stop-opacity="0.28"/>
</linearGradient>
<linearGradient id="paint1_linear" x1="64" y1="8.7578" x2="558" y2="457.258" gradientUnits="userSpaceOnUse">
<stop stop-color="#FF9B46"/>
<stop offset="1" stop-color="#FF9B46" stop-opacity="0.19"/>
</linearGradient>
<linearGradient id="paint2_linear" x1="-5.49999" y1="445.758" x2="462" y2="247.258" gradientUnits="userSpaceOnUse">
<stop offset="0.00609125" stop-color="#FC8621"/>
<stop offset="1" stop-color="#FF9B46" stop-opacity="0.28"/>
</linearGradient>
</defs>
</svg>
