<svg width="34" height="34" viewBox="0 0 34 34" fill="none" xmlns="http://www.w3.org/2000/svg">
<g filter="url(#filter0_i)">
<path fill-rule="evenodd" clip-rule="evenodd" d="M23.656 7.488C22.8401 6.78338 22 5.94238 22 4.86436V0.168001C22 0.0752167 22.0752 0 22.168 0C25.592 0 28.264 0.783999 30.184 2.352C32.136 3.92 33.112 6.048 33.112 8.736C33.112 10.72 32.584 12.368 31.528 13.68C30.7112 14.7265 30.8168 17.8732 31.703 18.8615C31.8412 19.0157 31.9749 19.1765 32.104 19.344C33.288 20.848 33.88 22.576 33.88 24.528C33.88 27.344 32.888 29.584 30.904 31.248C28.952 32.88 26.216 33.696 22.696 33.696H12.208C9.99886 33.696 8.208 31.9051 8.208 29.696V24.064C8.208 21.8549 9.99886 20.064 12.208 20.064H15V28H16V25.4617C16.7293 26.4391 17.8947 27.072 19.208 27.072H21.256C22.632 27.072 23.688 26.768 24.424 26.16C25.192 25.52 25.576 24.608 25.576 23.424C25.576 22.24 25.176 21.312 24.376 20.64C23.608 19.968 22.536 19.632 21.16 19.632H19V13.632H20.584C21.928 13.632 22.952 13.344 23.656 12.768C24.392 12.16 24.76 11.28 24.76 10.128C24.76 8.976 24.392 8.096 23.656 7.488ZM15 13.104V13.34C15 13.5278 14.8478 13.68 14.66 13.68H11.604C9.72844 13.68 8.208 12.1596 8.208 10.284V10.076C8.208 8.14301 9.775 6.576 11.708 6.576H11.996C13.3687 6.576 14.5402 7.43705 15 8.64848V13.104ZM3.5 33.696C5.433 33.696 7 32.129 7 30.196V3.5C7 1.567 5.433 0 3.5 0C1.567 0 0 1.567 0 3.5V30.196C0 32.129 1.567 33.696 3.5 33.696Z" fill="#C24914"/>
</g>
<defs>
<filter id="filter0_i" x="0" y="0" width="33.88" height="37.696" filterUnits="userSpaceOnUse" color-interpolation-filters="sRGB">
<feFlood flood-opacity="0" result="BackgroundImageFix"/>
<feBlend mode="normal" in="SourceGraphic" in2="BackgroundImageFix" result="shape"/>
<feColorMatrix in="SourceAlpha" type="matrix" values="0 0 0 0 0 0 0 0 0 0 0 0 0 0 0 0 0 0 127 0" result="hardAlpha"/>
<feOffset dy="4"/>
<feGaussianBlur stdDeviation="2"/>
<feComposite in2="hardAlpha" operator="arithmetic" k2="-1" k3="1"/>
<feColorMatrix type="matrix" values="0 0 0 0 0 0 0 0 0 0 0 0 0 0 0 0 0 0 0.25 0"/>
<feBlend mode="normal" in2="shape" result="effect1_innerShadow"/>
</filter>
</defs>
</svg>
