<svg width="228" height="42" viewBox="0 0 228 42" fill="none" xmlns="http://www.w3.org/2000/svg">
<g filter="url(#filter0_di)">
<path d="M79.532 11.344V15.18H71.524V19.324H77.516V23.048H71.524V31H66.736V11.344H79.532ZM160.011 20.92C161.15 21.1627 162.064 21.732 162.755 22.628C163.446 23.5053 163.791 24.5133 163.791 25.652C163.791 27.2947 163.212 28.6013 162.055 29.572C160.916 30.524 159.32 31 157.267 31H148.111V11.344H156.959C158.956 11.344 160.515 11.8013 161.635 12.716C162.774 13.6307 163.343 14.872 163.343 16.44C163.343 17.5973 163.035 18.5587 162.419 19.324C161.822 20.0893 161.019 20.6213 160.011 20.92ZM152.899 19.296H156.035C156.819 19.296 157.416 19.128 157.827 18.792C158.256 18.4373 158.471 17.924 158.471 17.252C158.471 16.58 158.256 16.0667 157.827 15.712C157.416 15.3573 156.819 15.18 156.035 15.18H152.899V19.296ZM156.427 27.136C157.23 27.136 157.846 26.9587 158.275 26.604C158.723 26.2307 158.947 25.6987 158.947 25.008C158.947 24.3173 158.714 23.776 158.247 23.384C157.799 22.992 157.174 22.796 156.371 22.796H152.899V27.136H156.427Z" fill="#FF9B46"/>
<path d="M86.8365 11.344V31H82.0485V11.344H86.8365ZM102.206 20.92C103.345 21.1627 104.26 21.732 104.95 22.628C105.641 23.5053 105.986 24.5133 105.986 25.652C105.986 27.2947 105.408 28.6013 104.25 29.572C103.112 30.524 101.516 31 99.4623 31H90.3063V11.344H99.1543C101.152 11.344 102.71 11.8013 103.83 12.716C104.969 13.6307 105.538 14.872 105.538 16.44C105.538 17.5973 105.23 18.5587 104.614 19.324C104.017 20.0893 103.214 20.6213 102.206 20.92ZM95.0943 19.296H98.2303C99.0143 19.296 99.6116 19.128 100.022 18.792C100.452 18.4373 100.666 17.924 100.666 17.252C100.666 16.58 100.452 16.0667 100.022 15.712C99.6116 15.3573 99.0143 15.18 98.2303 15.18H95.0943V19.296ZM98.6223 27.136C99.425 27.136 100.041 26.9587 100.47 26.604C100.918 26.2307 101.142 25.6987 101.142 25.008C101.142 24.3173 100.909 23.776 100.442 23.384C99.9943 22.992 99.369 22.796 98.5663 22.796H95.0943V27.136H98.6223ZM113.551 15.18V19.156H119.963V22.852H113.551V27.164H120.803V31H108.763V11.344H120.803V15.18H113.551ZM133.936 31L129.848 23.58H128.7V31H123.912V11.344H131.948C133.497 11.344 134.813 11.6147 135.896 12.156C136.997 12.6973 137.818 13.444 138.36 14.396C138.901 15.3293 139.172 16.3747 139.172 17.532C139.172 18.8387 138.798 20.0053 138.052 21.032C137.324 22.0587 136.241 22.7867 134.804 23.216L139.34 31H133.936ZM128.7 20.192H131.668C132.545 20.192 133.198 19.9773 133.628 19.548C134.076 19.1187 134.3 18.512 134.3 17.728C134.3 16.9813 134.076 16.3933 133.628 15.964C133.198 15.5347 132.545 15.32 131.668 15.32H128.7V20.192ZM175.864 31.196C174.016 31.196 172.317 30.7667 170.768 29.908C169.237 29.0493 168.015 27.8547 167.1 26.324C166.204 24.7747 165.756 23.0387 165.756 21.116C165.756 19.1933 166.204 17.4667 167.1 15.936C168.015 14.4053 169.237 13.2107 170.768 12.352C172.317 11.4933 174.016 11.064 175.864 11.064C177.712 11.064 179.401 11.4933 180.932 12.352C182.481 13.2107 183.695 14.4053 184.572 15.936C185.468 17.4667 185.916 19.1933 185.916 21.116C185.916 23.0387 185.468 24.7747 184.572 26.324C183.676 27.8547 182.463 29.0493 180.932 29.908C179.401 30.7667 177.712 31.196 175.864 31.196ZM175.864 26.828C177.432 26.828 178.683 26.3053 179.616 25.26C180.568 24.2147 181.044 22.8333 181.044 21.116C181.044 19.38 180.568 17.9987 179.616 16.972C178.683 15.9267 177.432 15.404 175.864 15.404C174.277 15.404 173.008 15.9173 172.056 16.944C171.123 17.9707 170.656 19.3613 170.656 21.116C170.656 22.852 171.123 24.2427 172.056 25.288C173.008 26.3147 174.277 26.828 175.864 26.828ZM200.816 27.528H193.48L192.304 31H187.292L194.404 11.344H199.948L207.06 31H201.992L200.816 27.528ZM199.584 23.832L197.148 16.636L194.74 23.832H199.584ZM223.364 11.344V15.18H218.156V31H213.368V15.18H208.16V11.344H223.364Z" fill="white"/>
</g>
<path d="M42.6217 12.8305C42.3562 13.0741 42.3987 13.1906 42.7704 13.1906C42.9085 13.1906 43.0147 13.233 43.0147 13.2966C43.0147 13.3495 42.9191 13.4025 42.8129 13.4025C42.6961 13.4025 42.5368 13.4343 42.4412 13.4661C42.3137 13.5084 42.2712 13.4661 42.2712 13.3072C42.2712 13.1694 42.2075 13.0847 42.1013 13.0847C42.0057 13.0847 41.9101 12.9894 41.8783 12.8728C41.8252 12.6928 41.7296 12.661 41.1136 12.661C40.7312 12.661 40.232 12.6928 40.009 12.7245C39.6266 12.7881 39.616 12.8093 39.7859 12.9894C39.924 13.1483 40.0515 13.1694 40.3595 13.1271C40.6038 13.0847 40.7843 13.1059 40.8268 13.18C40.8693 13.2436 41.0074 13.2966 41.1454 13.2966C41.2729 13.2966 41.4747 13.3707 41.5915 13.4555C41.857 13.6567 44.1405 13.6673 45.8717 13.4767C47.0932 13.3495 47.0932 13.3495 46.3709 13.3178L45.6487 13.286L45.7124 12.9788C45.7549 12.7457 45.7337 12.661 45.6168 12.661C45.5425 12.661 45.4469 12.7033 45.415 12.7563C45.3513 12.8517 45.0646 12.8199 44.7141 12.6928C44.6291 12.661 44.1724 12.6292 43.7051 12.6186C42.9828 12.608 42.8235 12.6398 42.6217 12.8305ZM43.8644 13.1906C43.8644 13.2436 43.79 13.2966 43.7051 13.2966C43.6201 13.2966 43.5458 13.2436 43.5458 13.1906C43.5458 13.1271 43.6201 13.0847 43.7051 13.0847C43.79 13.0847 43.8644 13.1271 43.8644 13.1906Z" fill="white"/>
<path d="M50.9273 12.7668C50.8211 12.8834 50.6724 12.9787 50.5874 12.9787C50.4281 12.9787 50.4069 13.1482 50.5556 13.2435C50.7786 13.3812 50.5343 13.5084 50.0458 13.519C49.5997 13.5296 49.5784 13.5401 49.8652 13.6143C50.4069 13.752 51.0016 13.7414 50.9485 13.5825C50.9273 13.519 50.9592 13.3812 51.0335 13.2965C51.2034 13.0952 51.3309 12.555 51.2141 12.555C51.161 12.555 51.0335 12.6503 50.9273 12.7668Z" fill="white"/>
<path d="M37.0458 12.9152C36.9608 12.9999 36.6528 13.0846 36.366 13.1164C34.5074 13.3283 34.5286 13.3283 34.4543 13.1482C34.4224 13.0529 34.2737 12.9787 34.125 12.9787C33.9869 12.9787 33.8914 13.0211 33.9338 13.0741C34.0082 13.2012 33.6683 13.3918 33.4878 13.3283C33.4134 13.2965 33.3497 13.3283 33.3497 13.3918C33.3497 13.4554 33.4347 13.5084 33.5409 13.5084C33.6471 13.5084 33.7851 13.5613 33.8595 13.6355C33.9445 13.7202 34.0188 13.7202 34.125 13.6355C34.3056 13.4872 34.4118 13.5719 34.4118 13.8579C34.4118 14.038 34.3587 14.0592 33.9657 14.0063C33.6789 13.9639 33.4453 13.8579 33.3284 13.7202C33.116 13.4554 32.7974 13.4342 31.6185 13.5613C30.8007 13.6567 30.6201 13.7838 31.1724 13.8897C31.6291 13.9745 31.7247 14.091 31.4061 14.1969C31.183 14.2605 31.183 14.2711 31.491 14.3664C31.6928 14.43 32.2345 14.4194 32.978 14.3452C33.6258 14.2817 34.6454 14.2075 35.2614 14.1863C35.8775 14.1546 36.5147 14.091 36.6847 14.038C37.1095 13.8897 38.5964 13.9109 38.9257 14.0592C39.2868 14.2181 39.2231 14.3346 38.6495 14.6313C38.1716 14.8855 37.6405 14.9385 33.7214 15.1079L33.4028 15.1185L33.7214 15.2033C34.04 15.288 34.04 15.288 33.6364 15.2986C33.3497 15.3092 33.2541 15.2668 33.3072 15.1821C33.3603 15.0974 33.2116 15.0868 32.7124 15.1291C32.3407 15.1715 31.8521 15.2033 31.6079 15.2033L31.1724 15.2139L31.4698 15.3728C31.6291 15.4575 31.7565 15.5741 31.7565 15.627C31.7565 15.68 32.0539 15.8813 32.4257 16.0613L33.0842 16.4003L34.4649 16.2732C35.9412 16.1461 37.1732 16.1143 37.1732 16.2096C37.1732 16.4639 36.8015 16.8982 36.5147 16.9935C36.2917 17.0677 36.1111 17.2266 36.0262 17.4279C35.9412 17.6185 35.8031 17.7457 35.6757 17.7457C35.3995 17.7457 35.4208 17.6821 35.7713 17.3643C36.0262 17.1313 36.0262 17.1101 35.8031 17.2372C35.0915 17.6291 35.1234 17.5974 35.4101 17.788C35.5588 17.8834 35.7288 17.9575 35.7925 17.9575C35.8456 17.9575 35.8987 17.9999 35.8987 18.0635C35.8987 18.127 36.228 18.1694 36.6847 18.1694C37.2476 18.1694 37.5025 18.2118 37.5981 18.3283C37.7998 18.5613 37.9379 18.519 37.7998 18.2647C37.6193 17.9152 37.7998 17.841 38.8832 17.7986C39.4355 17.7774 40.2214 17.7033 40.625 17.6503C42.165 17.4173 42.2606 17.449 43.4927 18.3283C43.79 18.5402 44.1936 18.8262 44.3954 18.9639C44.5972 19.1016 45.0752 19.4618 45.4575 19.7584C46.1798 20.3092 47.3481 20.9766 47.433 20.8918C47.4649 20.8601 47.2525 20.7012 46.9763 20.5211C45.4363 19.5465 42.9085 17.6503 42.9085 17.4596C42.9085 17.3007 42.8235 17.3113 44.4485 17.3219L45.7231 17.3325L47.4224 18.18C49.0474 18.9957 49.5678 19.2605 49.9183 19.4618C50.3325 19.6842 51.4796 20.1927 51.692 20.2457C51.8407 20.288 51.9363 20.2668 51.9363 20.1927C51.9363 20.1291 51.3946 19.8113 50.7467 19.4829C41.8252 15.0232 39.3399 13.7202 39.1806 13.4342C39.0425 13.1906 38.915 13.127 38.4371 13.0529C38.1185 13.0105 37.853 12.9257 37.8317 12.8728C37.7786 12.7139 37.2051 12.7457 37.0458 12.9152ZM35.1977 13.466C35.4101 13.5507 35.3146 13.7202 35.0384 13.7202C34.9322 13.7202 34.8366 13.6461 34.8366 13.5613C34.8366 13.3918 34.9322 13.3601 35.1977 13.466ZM32.8186 15.4152C32.4363 15.5423 31.8628 15.5423 31.8628 15.4152C31.8628 15.3516 32.1283 15.3092 32.4788 15.3198C32.9355 15.3304 33.0204 15.3516 32.8186 15.4152ZM42.3775 15.7753C42.3775 15.9978 40.5507 16.1673 40.4232 15.9554C40.3489 15.8389 41.103 15.6376 41.7402 15.6058C42.2925 15.5635 42.3775 15.5952 42.3775 15.7753ZM43.4183 16.4745C43.344 16.591 43.2484 16.644 43.1953 16.591C43.0678 16.4639 43.1953 16.2626 43.3971 16.2626C43.5245 16.2626 43.5245 16.2944 43.4183 16.4745Z" fill="white"/>
<path d="M32.9567 13.053C33.0523 13.0741 33.201 13.0741 33.2753 13.053C33.339 13.0212 33.2647 13 33.0842 13C32.9142 13 32.8505 13.0212 32.9567 13.053Z" fill="white"/>
<path d="M51.6813 13.233C51.7451 13.3813 52.2549 13.6144 52.531 13.6144C52.7541 13.6144 52.7116 13.4025 52.4992 13.4025C52.393 13.4025 52.2124 13.3284 52.1062 13.2436C51.8407 13.0423 51.607 13.0423 51.6813 13.233Z" fill="white"/>
<path d="M3.48366 13.2648C3.31373 13.286 3.18628 13.3283 3.18628 13.3495C3.18628 13.4978 3.75981 14.6843 8.09314 23.4554C9.99429 27.2902 10.2598 27.6821 11.4706 28.286C12.2884 28.6991 13.9771 29.0804 14.9755 29.0804C15.8464 29.0804 18.0025 28.7309 18.8946 28.4449C19.5531 28.2436 19.6912 28.233 22.8244 28.3389C29.0588 28.5402 37.4387 28.4131 39.4036 28.0953C40.7525 27.8728 42.6642 27.4809 43.4395 27.2796C43.8219 27.1737 44.5335 26.9936 45.0327 26.8771C47.3268 26.3368 52.0106 24.822 53.4338 24.1652C54.4322 23.7097 55.8873 22.7245 56.0253 22.4279C56.0784 22.3008 56.1634 22.1949 56.2059 22.1949C56.259 22.1949 56.2909 22.1207 56.2909 22.036C56.2909 21.9512 56.2377 21.8771 56.174 21.8771C55.9616 21.8771 56.2802 21.591 56.5564 21.5169C56.7051 21.4745 56.8219 21.3792 56.8219 21.2944C56.8219 21.1991 56.9493 21.0826 57.1087 21.019C57.4485 20.8919 57.6185 20.6906 57.8946 20.108C58.0114 19.8643 58.1495 19.6313 58.2132 19.5889C58.277 19.5571 58.2982 19.4724 58.277 19.3982C58.2451 19.3241 58.4469 19.1652 58.7443 19.0169C59.031 18.8898 59.2647 18.7309 59.2647 18.6779C59.2647 18.572 58.9355 18.6461 58.5 18.8686C56.9812 19.6419 52.6904 20.7118 49.3554 21.1461C45.2876 21.6758 42.3137 21.8241 37.5449 21.7393C34.1144 21.6758 33.2647 21.6122 31.2255 21.2944C28.3685 20.8495 27.4126 20.6906 27.0302 20.6059C26.7966 20.5529 25.7451 20.341 24.6936 20.1398C21.4118 19.4936 18.4804 18.8262 16.3031 18.2224C15.0923 17.8834 12.1928 17.1737 11.152 16.9512C10.7165 16.8559 9.79249 16.6652 9.11275 16.5275C7.85948 16.2732 7.27533 16.0402 6.58497 15.5423C6.02206 15.1292 5.52288 14.6419 5.52288 14.5042C5.52288 14.4406 5.44853 14.3241 5.36357 14.2499C5.2786 14.1758 5.20425 14.0169 5.20425 13.8898C5.20425 13.4766 4.26961 13.1376 3.48366 13.2648Z" fill="white"/>
<path d="M44.5654 14.2605C44.6079 14.3452 44.5335 14.3558 44.3317 14.3135C43.9812 14.2393 43.652 14.3982 43.8113 14.5571C44.0343 14.7796 45.4682 15.3092 45.8505 15.3092C46.6152 15.3092 47.0719 15.5741 46.4453 15.6482C46.201 15.6694 46.3922 15.7965 47.4755 16.3368C48.2084 16.6863 49.2598 17.1842 49.8121 17.4279C50.3644 17.6715 51.4902 18.2012 52.308 18.5931C54.4428 19.6313 54.4959 19.6524 55.0376 19.5359C55.7386 19.377 57.6822 18.6991 57.9265 18.5296C58.1389 18.3813 58.1389 18.3813 57.9371 18.3813C57.8203 18.3813 57.5866 18.3071 57.4273 18.2224C57.268 18.1376 57.0556 18.1058 56.96 18.1376C56.8644 18.18 56.8113 18.1588 56.8538 18.1058C56.9175 17.9999 56.6201 17.8198 55.7067 17.4279C55.2288 17.2266 53.8481 16.6863 53.8056 16.6863C53.795 16.6863 53.8056 16.8452 53.8268 17.0465C53.8587 17.3431 53.8268 17.4173 53.6463 17.4808C53.3914 17.555 53.3489 17.7457 53.5719 17.7457C53.7525 17.7457 54.6977 18.6991 54.6977 18.8791C54.6977 18.9639 54.549 19.0168 54.3154 19.0168C53.8056 19.0168 52.9878 18.805 53.0621 18.6885C53.094 18.6355 53.009 18.5931 52.8709 18.5931C52.616 18.5931 52.085 18.2859 52.3187 18.2753C52.4567 18.2753 52.3824 17.7457 52.2443 17.7457C52.1912 17.7457 52.1487 17.8728 52.1487 18.0211V18.2859L51.8195 18.0952C51.4371 17.8728 51.2778 17.6185 51.3628 17.3855C51.4053 17.2902 51.3734 17.1524 51.3097 17.0677C51.2141 16.9618 51.2247 16.9088 51.3415 16.8664C51.4265 16.8346 51.5115 16.8346 51.5327 16.877C51.5539 16.9194 51.7133 17.0253 51.8938 17.1207C52.2655 17.3113 52.7754 17.269 52.8603 17.0465C52.9347 16.8346 53.2958 16.8664 53.3489 17.0783C53.3807 17.2054 53.402 17.163 53.4126 16.9829C53.4126 16.8346 53.487 16.6863 53.5613 16.6546C53.625 16.6334 53.6569 16.5698 53.6144 16.5274C53.5613 16.4745 53.4445 16.5168 53.3489 16.6016C53.1683 16.7499 52.5417 17.0041 52.3399 17.0041C52.2868 17.0041 52.3718 16.8876 52.5417 16.7499L52.8391 16.4957L52.5417 16.5486C52.3293 16.591 52.2549 16.5592 52.2549 16.4427C52.2549 16.3474 52.3399 16.2626 52.4461 16.2308C52.6054 16.1991 52.6054 16.1779 52.4142 16.1037C52.2974 16.0507 52.1806 15.9766 52.1487 15.9448C52.1169 15.9024 51.9363 15.8177 51.7345 15.7541C51.4584 15.6588 51.3521 15.6588 51.2884 15.7435C51.1928 15.913 50.9804 15.7647 50.9804 15.5317C50.9804 15.341 50.4069 15.0974 49.9608 15.0974C49.8546 15.0974 49.674 15.0126 49.5572 14.8961C49.4298 14.7902 49.0899 14.5783 48.7925 14.4194C48.2933 14.1546 48.1765 14.1334 47.1994 14.1652C46.6258 14.1863 46.0523 14.2499 45.9461 14.2923C45.7974 14.3664 45.7655 14.3558 45.8186 14.2711C45.8717 14.1757 45.7018 14.144 45.192 14.144C44.7034 14.144 44.5123 14.1757 44.5654 14.2605ZM50.5343 15.4575C50.4494 15.5423 50.2901 15.627 50.1732 15.6482C49.9927 15.6906 50.0033 15.7118 50.2369 15.8071C50.4706 15.913 50.4812 15.9342 50.3113 15.9978C50.0139 16.1249 49.8546 15.9024 50.0033 15.5741C50.0883 15.394 50.2051 15.3092 50.3963 15.3092C50.6405 15.3092 50.6512 15.3304 50.5343 15.4575ZM55.5474 17.6397C55.6749 17.7245 55.643 17.7457 55.42 17.7457C55.2606 17.7457 55.1013 17.6927 55.0695 17.6397C54.9845 17.502 55.335 17.502 55.5474 17.6397ZM56.5033 17.9469C56.5033 18.0635 56.174 18.2012 56.0891 18.1164C56.0572 18.0846 56.0997 18.0105 56.1847 17.9575C56.3865 17.8304 56.5033 17.8304 56.5033 17.9469ZM55.3031 18.127C55.2713 18.1588 55.1757 18.1694 55.1013 18.1376C55.0164 18.1058 55.0482 18.0741 55.1651 18.0741C55.2819 18.0635 55.3456 18.0952 55.3031 18.127ZM57.1405 18.3813C57.1405 18.4342 57.1193 18.4872 57.0981 18.4872C57.0662 18.4872 57.0131 18.4342 56.9812 18.3813C56.9494 18.3177 56.9706 18.2753 57.0237 18.2753C57.0874 18.2753 57.1405 18.3177 57.1405 18.3813ZM56.7157 18.5402C56.7157 18.6249 56.6414 18.6991 56.5564 18.6991C56.4714 18.6991 56.3971 18.6249 56.3971 18.5402C56.3971 18.4554 56.4714 18.3813 56.5564 18.3813C56.6414 18.3813 56.7157 18.4554 56.7157 18.5402Z" fill="white"/>
<path d="M26.1274 14.8961C26.1274 15.0339 26.2443 15.161 26.4992 15.2669C26.9559 15.447 26.9028 15.6483 26.3292 15.8707C26.1062 15.9555 25.915 16.1038 25.915 16.1885C25.915 16.2839 25.7769 16.3792 25.5751 16.4216C25.384 16.4533 24.7042 16.6016 24.0564 16.7394C23.4191 16.8771 22.3145 17.1101 21.6135 17.2584C19.6699 17.6822 19.5 17.7351 19.6593 17.9152C19.7974 18.0847 20.2753 18.1059 20.817 17.9576C21.4649 17.7881 23.3766 17.5339 24.067 17.5339C24.5555 17.5339 24.7361 17.5762 24.7892 17.6928C24.8423 17.8305 24.4918 18.2754 24.3219 18.2754C24.1307 18.2754 23.8015 18.6991 23.7377 19.0169L23.674 19.3877L24.5555 19.6207C25.8194 19.9597 26.6691 20.0762 27.147 19.9703C27.3701 19.9173 27.5825 19.8961 27.625 19.9279C27.6675 19.9491 27.7312 19.9279 27.7631 19.875C27.7949 19.822 27.9967 19.7478 28.2091 19.7055C28.5596 19.6419 28.5809 19.6313 28.4003 19.4936C28.2091 19.3453 28.2091 19.3453 28.4322 19.3347C28.5596 19.3347 28.6765 19.3877 28.6977 19.4618C28.7296 19.5572 28.9314 19.5572 29.5367 19.4406C29.9722 19.3665 30.3652 19.2605 30.4289 19.2076C30.482 19.1652 30.7157 19.1228 30.96 19.1228C31.3423 19.1228 31.5229 19.2288 32.6487 20.1292C33.8913 21.1144 34.5498 21.4957 33.7214 20.7436C32.0114 19.197 31.9583 19.1334 32.0858 18.8792C32.1495 18.7521 32.2238 18.6355 32.2345 18.6144C32.2769 18.5614 35.0065 20.1928 35.6969 20.68C36.2385 21.0614 36.8546 21.3474 37.1413 21.3474C37.3006 21.3474 37.3006 21.3262 37.1732 21.2097C37.0882 21.1355 36.5572 20.786 36.0049 20.447C35.4526 20.108 34.5392 19.536 33.9869 19.1758C32.8823 18.4555 30.9175 17.2266 30.6201 17.0572C30.5139 16.9936 30.2802 16.8559 30.1103 16.7288C29.9297 16.6122 29.4836 16.3368 29.1013 16.1144C28.7189 15.9025 28.0817 15.4894 27.6675 15.2033C27.0939 14.8008 26.8284 14.6737 26.531 14.6737C26.1912 14.6737 26.1274 14.7055 26.1274 14.8961ZM29.5367 16.9406C29.7385 17.0254 29.9934 17.1843 30.089 17.3008C30.1952 17.4173 30.4289 17.5762 30.5988 17.6398C30.9387 17.7881 31.0131 18.0635 30.7263 18.0635C30.5882 18.0741 30.6201 18.1165 30.8325 18.233C31.1299 18.3919 31.1617 18.4661 31.0555 18.7415C30.9812 18.9216 30.3652 19.0805 30.0997 18.9745C29.9297 18.911 29.9297 18.8898 30.0997 18.7097C30.259 18.5402 30.259 18.5084 30.0678 18.3389C29.9616 18.2436 29.8448 18.0211 29.8129 17.8516C29.7492 17.5868 29.6961 17.5444 29.2075 17.4809C28.9207 17.4385 28.2198 17.4385 27.6675 17.4809C27.0196 17.5339 26.6585 17.5233 26.6585 17.4491C26.6585 17.2902 27.1683 17.1313 28.1348 17.0148C28.6233 16.9512 29.0588 16.8771 29.08 16.8453C29.1544 16.7711 29.1332 16.7711 29.5367 16.9406ZM26.3399 19.1334C26.3399 19.2394 26.2974 19.3347 26.2336 19.3347C26.1805 19.3347 26.1274 19.2076 26.1274 19.0593C26.1274 18.911 26.1699 18.8156 26.2336 18.858C26.2974 18.8898 26.3399 19.0169 26.3399 19.1334ZM29.5261 19.2288C29.5261 19.2817 29.4518 19.3347 29.3668 19.3347C29.2818 19.3347 29.2075 19.2817 29.2075 19.2288C29.2075 19.1652 29.2818 19.1228 29.3668 19.1228C29.4518 19.1228 29.5261 19.1652 29.5261 19.2288Z" fill="white"/>
<path d="M53.9012 14.7795C54.1879 14.9067 54.3579 14.9067 54.1667 14.7795C54.0817 14.7266 53.933 14.6842 53.8481 14.6842C53.7418 14.6842 53.7631 14.716 53.9012 14.7795Z" fill="white"/>
<path d="M55.9722 14.822C55.9722 14.8432 56.0466 14.8856 56.1315 14.9279C56.2165 14.9597 56.2909 14.9385 56.2909 14.8856C56.2909 14.822 56.2165 14.7796 56.1315 14.7796C56.0466 14.7796 55.9722 14.8008 55.9722 14.822Z" fill="white"/>
<path d="M54.6446 15.0762C54.7084 15.1398 54.8995 15.2139 55.0695 15.2563C55.2925 15.2987 55.335 15.2881 55.2288 15.2245C54.9739 15.0656 54.5172 14.9491 54.6446 15.0762Z" fill="white"/>
<path d="M24.906 16.1568C24.8742 16.2097 24.9167 16.2627 25.0122 16.2627C25.1078 16.2627 25.1503 16.2097 25.1185 16.1568C25.0866 16.0932 25.0335 16.0508 25.0122 16.0508C24.991 16.0508 24.9379 16.0932 24.906 16.1568Z" fill="white"/>
<path d="M60.3268 16.1568C60.3268 16.2097 60.3799 16.2627 60.4436 16.2627C60.4967 16.2627 60.5179 16.2097 60.4861 16.1568C60.4542 16.0932 60.4011 16.0508 60.3693 16.0508C60.348 16.0508 60.3268 16.0932 60.3268 16.1568Z" fill="white"/>
<path d="M57.9477 16.358C58.0008 16.411 58.192 16.4852 58.3619 16.5275C58.6806 16.5911 58.6806 16.5911 58.3195 16.4216C57.9159 16.2415 57.799 16.2203 57.9477 16.358Z" fill="white"/>
<path d="M59.817 16.5592C59.8382 16.7075 59.7639 16.7393 59.4559 16.7287C58.9673 16.7075 58.9354 16.8346 59.3709 16.9935C59.5515 17.0465 59.7214 17.1736 59.7532 17.269C59.7851 17.3537 59.9019 17.4279 60.0081 17.4279C60.3374 17.4279 60.964 17.0041 60.964 16.7817C60.964 16.5168 60.7835 16.5274 60.6242 16.7923C60.4542 17.0571 60.3268 17.0677 60.3268 16.8134C60.3268 16.7181 60.2099 16.5804 60.0613 16.5062C59.8276 16.4003 59.7957 16.4109 59.817 16.5592Z" fill="white"/>
<path d="M61.2827 16.591C61.2827 16.644 61.3358 16.6652 61.3889 16.6334C61.4526 16.6016 61.4951 16.5486 61.4951 16.5169C61.4951 16.4957 61.4526 16.4745 61.3889 16.4745C61.3358 16.4745 61.2827 16.5275 61.2827 16.591Z" fill="white"/>
<path d="M39 19.5995C39.2231 19.8326 39.4142 19.9915 39.4461 19.9597C39.4673 19.9385 39.2974 19.7584 39.0531 19.5572L38.6071 19.197L39 19.5995Z" fill="white"/>
<defs>
<filter id="filter0_di" x="62.736" y="10.064" width="164.628" height="28.132" filterUnits="userSpaceOnUse" color-interpolation-filters="sRGB">
<feFlood flood-opacity="0" result="BackgroundImageFix"/>
<feColorMatrix in="SourceAlpha" type="matrix" values="0 0 0 0 0 0 0 0 0 0 0 0 0 0 0 0 0 0 127 0"/>
<feOffset dy="3"/>
<feGaussianBlur stdDeviation="2"/>
<feColorMatrix type="matrix" values="0 0 0 0 0 0 0 0 0 0 0 0 0 0 0 0 0 0 0.25 0"/>
<feBlend mode="normal" in2="BackgroundImageFix" result="effect1_dropShadow"/>
<feBlend mode="normal" in="SourceGraphic" in2="effect1_dropShadow" result="shape"/>
<feColorMatrix in="SourceAlpha" type="matrix" values="0 0 0 0 0 0 0 0 0 0 0 0 0 0 0 0 0 0 127 0" result="hardAlpha"/>
<feOffset dy="4"/>
<feGaussianBlur stdDeviation="2"/>
<feComposite in2="hardAlpha" operator="arithmetic" k2="-1" k3="1"/>
<feColorMatrix type="matrix" values="0 0 0 0 0 0 0 0 0 0 0 0 0 0 0 0 0 0 0.25 0"/>
<feBlend mode="normal" in2="shape" result="effect2_innerShadow"/>
</filter>
</defs>
</svg>
