<svg width="42" height="42" viewBox="0 0 42 42" fill="none" xmlns="http://www.w3.org/2000/svg">
<path fill-rule="evenodd" clip-rule="evenodd" d="M7 5.25H13.125C14.0875 5.25 14.875 6.0375 14.875 7C14.875 9.1875 15.225 11.2875 15.8725 13.2475C16.065 13.86 15.925 14.5425 15.435 15.0325L11.585 18.8825C14.105 23.835 18.165 27.8775 23.1175 30.415L26.9675 26.565C27.3175 26.2325 27.755 26.0575 28.21 26.0575C28.385 26.0575 28.5775 26.075 28.7525 26.145C30.7125 26.7925 32.83 27.1425 35 27.1425C35.9625 27.1425 36.75 27.93 36.75 28.8925V35C36.75 35.9625 35.9625 36.75 35 36.75C18.5675 36.75 5.25 23.4325 5.25 7C5.25 6.0375 6.0375 5.25 7 5.25ZM11.445 8.75003C11.55 10.3075 11.8125 11.83 12.2325 13.2825L10.1325 15.3825C9.415 13.2825 8.96 11.06 8.8025 8.75003H11.445ZM28.7 29.785C30.1875 30.205 31.71 30.4675 33.25 30.5725V33.18C30.94 33.0225 28.7175 32.5675 26.6 31.8675L28.7 29.785Z" fill="#682C0E"/>
</svg>
