<svg width="120" height="120" viewBox="0 0 120 120" fill="none" xmlns="http://www.w3.org/2000/svg">
<g clip-path="url(#clip0)">
<path d="M117.874 51.4078C116.63 49.5292 114.744 48.2346 112.551 47.7439C113.966 45.0385 113.908 41.6629 112.106 38.9429C110.825 37.0066 108.891 35.756 106.786 35.2826C107.162 34.5667 107.439 33.794 107.605 32.9792C108.064 30.7132 107.616 28.4043 106.339 26.4771C105.094 24.5975 103.208 23.3029 101.016 22.8131C102.43 20.1077 102.373 16.7322 100.571 14.0112C97.9368 10.0333 92.5553 8.93922 88.5764 11.5741L79.9613 17.2797C75.369 14.9506 70.4847 13.298 65.4154 12.3569C63.8132 9.92433 61.9501 7.66297 59.8645 5.64149L56.3004 2.1872C53.6902 -0.343317 49.5969 -0.723262 46.5665 1.28449C42.9813 3.65846 41.9962 8.50709 44.3702 12.0923C44.4635 12.2342 44.5551 12.377 44.6457 12.5199C32.9627 14.8837 22.3151 21.0837 14.4342 30.1685C5.88227 40.0278 1.17188 52.6548 1.17188 65.723C1.17188 68.2279 1.34308 70.7374 1.68182 73.18C4.29199 92.169 16.9409 108.533 34.6912 115.888C41.2738 118.616 48.2584 120 55.448 120C66.8345 120 77.7338 116.513 86.9688 109.916C96.0032 103.462 102.763 94.5548 106.517 84.1581C106.868 83.1895 106.365 82.1192 105.396 81.7695C104.427 81.4197 103.358 81.9215 103.008 82.891C99.5115 92.5727 93.2154 100.867 84.799 106.88C76.2012 113.022 66.0517 116.268 55.448 116.268C49.9659 116.268 44.6128 115.403 39.4895 113.697L54.6708 103.643L54.6735 103.641L54.6753 103.64L67.2922 95.2845H67.2931C68.4257 94.5338 69.1993 93.3875 69.4703 92.0554C69.7413 90.7233 69.4776 89.3647 68.7269 88.2322L68.5602 87.9795L71.0111 86.3563C72.7598 85.1981 74.8627 84.744 76.9337 85.0764C79.932 85.5579 82.9771 84.8988 85.5076 83.2224L105.836 69.7605C105.697 71.5238 105.468 73.277 105.148 75.001C104.96 76.0145 105.629 76.9886 106.643 77.1763C106.757 77.1982 106.872 77.2083 106.985 77.2083C107.867 77.2083 108.65 76.5803 108.817 75.6821C109.334 72.8998 109.632 70.0498 109.709 67.1961L115.437 63.4021C117.364 62.1259 118.68 60.1749 119.139 57.9099C119.6 55.644 119.15 53.335 117.874 51.4078ZM76.3386 19.6784L70.6376 23.454L69.5151 20.43C69.0464 19.1684 68.509 17.9315 67.9139 16.7212C70.806 17.4545 73.6222 18.4433 76.3386 19.6784ZM17.2531 32.6139C24.8273 23.8825 35.1444 18.013 46.431 15.9778C48.2419 20.365 48.6759 25.2667 47.5937 29.9387L43.0445 49.5923C42.3294 48.8288 41.4011 48.3023 40.3556 48.0899C39.0226 47.818 37.6648 48.0826 36.5323 48.8334L23.6463 57.3661L23.6444 57.367L23.6435 57.3679L5.05829 69.6753C4.95667 68.3643 4.90357 67.0432 4.90357 65.723C4.90357 53.5538 9.28986 41.7948 17.2531 32.6139ZM65.8137 91.3111C65.7413 91.6663 65.5344 91.973 65.2314 92.1735H65.2323L54.1507 99.5115L33.5834 68.8386C33.0094 67.9825 31.8503 67.7546 30.9943 68.3286C30.1392 68.9026 29.9103 70.0608 30.4843 70.9168L51.0389 101.572L35.2194 112.049C19.4998 105.173 8.25074 90.6528 5.54627 73.7568L24.1535 61.475L26.2949 64.6702C26.6556 65.2066 27.2452 65.4969 27.8467 65.4969C28.2038 65.4969 28.5654 65.3952 28.884 65.181C29.74 64.607 29.9689 63.4479 29.3949 62.5919L27.2681 59.4196L38.5932 51.9443C38.8944 51.7438 39.256 51.6742 39.6112 51.7466C39.9665 51.8189 40.2732 52.0258 40.4737 52.3279L65.6159 90.293C65.8155 90.5942 65.886 90.9559 65.8137 91.3111ZM115.483 57.1665C115.221 58.4556 114.473 59.5652 113.376 60.2912L106.827 64.628C106.826 64.629 106.824 64.6308 106.821 64.6317L83.4467 80.1115C81.6981 81.2696 79.5951 81.7246 77.5242 81.3914C74.5267 80.9107 71.4817 81.569 68.9502 83.2453L66.4994 84.8685L45.9073 53.7745L51.2302 30.781C52.6007 24.8575 51.8784 18.6182 49.2673 13.1827C49.2435 13.1259 49.2179 13.071 49.1886 13.017C48.6869 11.9898 48.1174 10.9928 47.4811 10.0314C46.2433 8.16194 46.7569 5.63416 48.6274 4.39545C50.2076 3.34901 52.3426 3.54676 53.703 4.86604L57.2672 8.32124C61.1225 12.0593 64.1483 16.6956 66.016 21.7291L67.9569 26.9577C67.9606 26.9678 67.9642 26.976 67.9679 26.9852C67.9725 26.9971 67.978 27.0099 67.9825 27.0218C67.9963 27.0539 68.0091 27.0832 68.0228 27.1079C68.0604 27.1866 68.1016 27.2644 68.151 27.3386C68.7205 28.1983 69.8777 28.4336 70.7364 27.8641L90.6373 14.686C92.9005 13.1873 95.9611 13.8089 97.4598 16.0721C98.9585 18.3353 98.3369 21.3959 96.0737 22.8946L94.3461 24.039L94.3443 24.0399L90.4908 26.5924C90.4853 26.5961 90.4816 26.5998 90.4761 26.6025C90.4542 26.6181 90.4331 26.6327 90.4157 26.6474C89.6192 27.2324 89.4132 28.3448 89.9653 29.1779C90.5338 30.0376 91.692 30.2729 92.5517 29.7034L96.4079 27.1491C97.5037 26.4249 98.8157 26.1695 100.104 26.4313C101.392 26.6931 102.503 27.4411 103.228 28.5379C103.954 29.6338 104.21 30.9476 103.948 32.2357C103.686 33.5248 102.938 34.6344 101.842 35.3604L96.2586 39.0583C95.3989 39.6268 95.1636 40.784 95.7331 41.6437C96.092 42.1857 96.6852 42.4796 97.2904 42.4796C97.6438 42.4796 98.0018 42.3789 98.3186 42.1692L99.1828 41.597L102.173 39.6167C104.437 38.118 107.497 38.7397 108.995 41.0028C110.494 43.2669 109.873 46.3266 107.609 47.8263L104.821 49.6729C104.806 49.682 104.791 49.6921 104.777 49.7022L102.026 51.5232C101.167 52.0917 100.931 53.2499 101.501 54.1095C101.86 54.6515 102.453 54.9454 103.058 54.9454C103.412 54.9454 103.77 54.8447 104.086 54.6351L104.951 54.0628L104.952 54.0619L107.942 52.0826C109.038 51.3565 110.35 51.1002 111.639 51.363C112.929 51.6239 114.038 52.3728 114.764 53.4687C115.489 54.5646 115.745 55.8783 115.483 57.1665Z" fill="#682C0E"/>
</g>
<defs>
<clipPath id="clip0">
<rect width="120" height="120" fill="white"/>
</clipPath>
</defs>
</svg>
