<svg width="43" height="43" viewBox="0 0 43 43" fill="none" xmlns="http://www.w3.org/2000/svg">
<g clip-path="url(#clip0)">
<path d="M40.795 2.52246H27.3883C26.1711 2.52246 25.1832 3.51032 25.1832 4.72751V18.1342C25.1832 19.3514 26.1711 20.3392 27.3883 20.3392H33.805C33.7212 23.8497 32.9053 26.6589 31.3618 28.7713C30.1446 30.4383 28.3012 31.8187 25.8359 32.908C24.7025 33.4063 24.213 34.747 24.7422 35.8672L26.3298 39.2189C26.8414 40.2949 28.1071 40.7668 29.2008 40.2949C32.1203 39.0336 34.5856 37.4372 36.5965 35.4967C39.0486 33.1285 40.7288 30.456 41.6373 27.4748C42.5458 24.4935 43 20.4274 43 15.2676V4.72751C43 3.51037 42.0121 2.52246 40.795 2.52246Z" fill="#FC8621"/>
<path d="M4.67627 40.2861C7.56048 39.0292 10.0125 37.4328 12.0367 35.4967C14.5108 33.1285 16.1999 30.4648 17.1083 27.5056C18.0168 24.5465 18.471 20.4671 18.471 15.2676V4.72751C18.471 3.51032 17.4832 2.52246 16.266 2.52246H2.85927C1.64209 2.52246 0.654225 3.51032 0.654225 4.72751V18.1342C0.654225 19.3514 1.64209 20.3392 2.85927 20.3392H9.27596C9.19217 23.8497 8.3763 26.6589 6.83277 28.7713C5.61558 30.4383 3.77216 31.8187 1.30692 32.908C0.173525 33.4063 -0.315996 34.747 0.213216 35.8672L1.79644 39.2101C2.30805 40.2861 3.58257 40.7624 4.67627 40.2861Z" fill="#FC8621"/>
</g>
<defs>
<clipPath id="clip0">
<rect width="43" height="43" fill="white"/>
</clipPath>
</defs>
</svg>
