<svg width="120" height="120" viewBox="0 0 120 120" fill="none" xmlns="http://www.w3.org/2000/svg">
<g clip-path="url(#clip0)">
<path d="M109.311 20.7213C92.8006 16.1975 76.193 9.15332 61.2838 0.350683C60.4918 -0.116894 59.5091 -0.116894 58.7174 0.350683C43.378 9.40621 27.6679 16.0692 10.6886 20.7213C9.59173 21.0216 8.83142 22.0186 8.83142 23.156V48.948C8.83142 75.508 21.0843 93.089 31.3635 103.16C42.4297 114.004 55.3203 120 60.0006 120C64.6803 120 77.5709 114.004 88.6372 103.16C98.9161 93.0892 111.168 75.5083 111.168 48.948V23.1558C111.168 22.0186 110.408 21.0216 109.311 20.7213ZM106.12 48.9478C106.12 73.7547 94.6915 90.1597 85.1037 99.5539C74.2215 110.217 62.5864 114.951 60.0006 114.951C57.4147 114.951 45.7789 110.217 34.8965 99.5539C25.3089 90.1595 13.8801 73.7547 13.8801 48.9478V25.072C30.1171 20.4619 45.2385 14.0281 60.001 5.44927C74.3949 13.8005 90.2708 20.5542 106.12 25.0711V48.9478Z" fill="#682C0E"/>
<path d="M37.6263 24.7897C37.1153 23.4925 35.6498 22.8552 34.3523 23.3664C29.8429 25.1432 25.2145 26.7786 20.5957 28.2275C19.5431 28.558 18.8268 29.533 18.8268 30.636V40.3838C18.8268 41.7779 19.9572 42.908 21.3511 42.908C22.7449 42.908 23.8753 41.7779 23.8753 40.3838V32.4807C28.0188 31.1401 32.1578 29.6572 36.2029 28.0632C37.5002 27.5525 38.1374 26.087 37.6263 24.7897Z" fill="#FC8621"/>
<path d="M42.4213 25.2684C42.76 25.2684 43.1038 25.2002 43.4336 25.0563L43.48 25.0362C44.7571 24.4765 45.3323 22.9898 44.7726 21.7132C44.2124 20.4361 42.7174 19.8583 41.4417 20.4176L41.4009 20.4351C40.1231 20.9932 39.546 22.4787 40.1041 23.756C40.5182 24.7043 41.4475 25.2684 42.4213 25.2684Z" fill="#FC8621"/>
<path d="M90.0753 81.3943C88.9088 80.6318 87.3446 80.9597 86.5813 82.1267C84.5012 85.3104 82.0609 88.3592 79.3271 91.1874C77.079 93.5128 74.6429 95.6803 72.0866 97.6292C70.9782 98.4743 70.765 100.058 71.6099 101.167C72.107 101.818 72.8586 102.161 73.6189 102.161C74.1528 102.161 74.6907 101.993 75.1478 101.644C77.9052 99.5412 80.5325 97.2038 82.9564 94.6964C85.9121 91.6393 88.5535 88.3393 90.8077 84.8881C91.5706 83.7209 91.2423 82.1567 90.0753 81.3943Z" fill="#FC8621"/>
<path d="M66.2243 101.588L66.0795 101.674C64.8731 102.372 64.4609 103.916 65.1593 105.123C65.6273 105.931 66.4746 106.382 67.3462 106.382C67.7751 106.382 68.2106 106.273 68.6083 106.042L68.7754 105.944C69.9785 105.239 70.3826 103.693 69.678 102.49C68.973 101.288 67.4266 100.884 66.2243 101.588Z" fill="#FC8621"/>
<path d="M42.7943 54.8483C41.2444 53.2981 39.183 52.445 36.9907 52.445C34.7984 52.445 32.7368 53.2984 31.1862 54.8483C27.9863 58.0489 27.9863 63.2567 31.1862 66.4571L46.0915 81.3619C47.6416 82.9116 49.7029 83.765 51.8955 83.765C54.0881 83.765 56.1494 82.9116 57.6998 81.3615L88.8156 50.2454C92.0153 47.0441 92.0153 41.837 88.8151 38.6375C87.265 37.0873 85.2037 36.2342 83.0108 36.2342C80.8183 36.2342 78.757 37.0876 77.2066 38.6375L51.8953 63.9488L42.7943 54.8483ZM80.7766 42.2075C81.373 41.611 82.1669 41.2827 83.0111 41.2827C83.8558 41.2827 84.6489 41.611 85.2458 42.2075C86.4775 43.4391 86.4775 45.444 85.2454 46.6761L54.13 77.7917C53.5336 78.3882 52.7397 78.7165 51.8955 78.7165C51.0513 78.7165 50.2575 78.3882 49.6608 77.7917L34.756 62.8873C33.5238 61.6552 33.5238 59.6504 34.7555 58.4187C35.3522 57.8223 36.146 57.4934 36.9905 57.4934C37.8349 57.4934 38.6283 57.8218 39.2248 58.4183L50.1103 69.304C50.584 69.7772 51.2257 70.0433 51.8953 70.0433C52.5649 70.0433 53.2066 69.7775 53.6798 69.304L80.7766 42.2075Z" fill="#FC8621"/>
</g>
<defs>
<clipPath id="clip0">
<rect width="120" height="120" fill="white"/>
</clipPath>
</defs>
</svg>
