<svg width="57" height="57" viewBox="0 0 57 57" fill="none" xmlns="http://www.w3.org/2000/svg">
<g clip-path="url(#clip0)" filter="url(#filter0_d)">
<path d="M50.2953 8.6594e-08H6.70249C5.20975 0.000747767 3.99963 1.21162 4 2.70473V46.2975C4.00075 47.7903 5.21162 49.0004 6.70473 49H50.2953C51.7888 49.0004 52.9996 47.7899 53 46.2964C53 46.296 53 46.2956 53 46.2953V2.70249C52.9993 1.20975 51.7884 -0.000373754 50.2953 8.6594e-08Z" fill="#FF7E10"/>
<path d="M37.8311 49.0002V30.051H44.2192L45.1763 22.634H37.8311V17.9102C37.8311 15.7677 38.4258 14.3078 41.4981 14.3078H45.3916V7.69199C44.7142 7.60189 42.39 7.40039 39.6857 7.40039C34.0392 7.40039 30.1748 10.8457 30.1748 17.1756V22.634H23.8105V30.051H30.1748V49.0002H37.8311Z" fill="white"/>
</g>
<defs>
<filter id="filter0_d" x="0" y="0" width="57" height="57" filterUnits="userSpaceOnUse" color-interpolation-filters="sRGB">
<feFlood flood-opacity="0" result="BackgroundImageFix"/>
<feColorMatrix in="SourceAlpha" type="matrix" values="0 0 0 0 0 0 0 0 0 0 0 0 0 0 0 0 0 0 127 0"/>
<feOffset dy="4"/>
<feGaussianBlur stdDeviation="2"/>
<feColorMatrix type="matrix" values="0 0 0 0 1 0 0 0 0 1 0 0 0 0 1 0 0 0 0.25 0"/>
<feBlend mode="normal" in2="BackgroundImageFix" result="effect1_dropShadow"/>
<feBlend mode="normal" in="SourceGraphic" in2="effect1_dropShadow" result="shape"/>
</filter>
<clipPath id="clip0">
<rect width="49" height="49" fill="white" transform="translate(4)"/>
</clipPath>
</defs>
</svg>
