<svg width="120" height="120" viewBox="0 0 120 120" fill="none" xmlns="http://www.w3.org/2000/svg">
<path d="M92.4546 46.148L99.8114 33.4058L88.54 23.9479L85.985 9.45789H71.2715L60.0001 0L48.7288 9.45765H34.0153L31.4602 23.9477L20.1888 33.4056L27.5457 46.1478L24.9907 60.6381L31.7946 63.1144V120H39.269L60.0552 97.9916L80.9051 120H88.3116V63.0763L95.0098 60.6383L92.4546 46.148ZM38.859 110.145V65.7439L46.1737 78.4131L56.5206 74.6472V91.4455L38.859 110.145ZM81.2468 110.089L63.5852 91.4459V74.6856L73.8263 78.4131L81.1832 65.6709L81.2468 65.6478V110.089ZM85.0506 44.8427L87.0228 56.0272L76.3507 59.9113L70.6722 69.7469L60.0001 65.8626L49.3281 69.7469L43.6495 59.9113L32.9775 56.0272L34.9497 44.8427L29.2711 35.0071L37.9712 27.7068L39.9434 16.5223H51.3005L60.0006 9.22216L68.7007 16.5223H80.0578L82.03 27.7068L90.7301 35.0071L85.0506 44.8427Z" fill="#682C0E"/>
<path d="M56.1399 40.4742C55.2967 41.1066 54.1074 40.976 53.4215 40.1758L51.0317 37.3877C50.3128 36.5491 49.0502 36.452 48.2115 37.1708L45.8848 39.1653C45.0462 39.8842 44.949 41.1467 45.6679 41.9854L52.3653 49.7991C53.0512 50.5994 54.2406 50.73 55.0838 50.0975L73.4713 36.3067C74.355 35.644 74.5341 34.3904 73.8713 33.5067L72.0325 31.055C71.3698 30.1713 70.1162 29.9923 69.2326 30.655L56.1399 40.4742Z" fill="#FC8621"/>
</svg>
