<svg width="58" height="58" viewBox="0 0 58 58" fill="none" xmlns="http://www.w3.org/2000/svg">
<g filter="url(#filter0_d)">
<rect x="4" width="50" height="50" rx="10" fill="#FF7E10"/>
</g>
<path d="M35.7046 9H22.2955C17.1699 9 13 13.1699 13 18.2955V31.7045C13 36.8301 17.1699 41 22.2955 41H35.7045C40.8301 41 45 36.8301 45 31.7046V18.2955C45 13.1699 40.8301 9 35.7046 9ZM42.5 31.7045C42.5 35.4516 39.4516 38.5 35.7046 38.5H22.2955C18.5484 38.5 15.5 35.4516 15.5 31.7046V18.2955C15.5 14.5484 18.5484 11.5 22.2955 11.5H35.7045C39.4516 11.5 42.5 14.5484 42.5 18.2955V31.7045Z" fill="white"/>
<path d="M29 16.375C24.2441 16.375 20.375 20.2441 20.375 25C20.375 29.7559 24.2441 33.625 29 33.625C33.7559 33.625 37.625 29.7559 37.625 25C37.625 20.2441 33.7559 16.375 29 16.375ZM29 31.125C25.6227 31.125 22.875 28.3773 22.875 25C22.875 21.6227 25.6227 18.875 29 18.875C32.3773 18.875 35.125 21.6227 35.125 25C35.125 28.3773 32.3773 31.125 29 31.125Z" fill="white"/>
<path d="M37.75 17.5C38.4404 17.5 39 16.9404 39 16.25C39 15.5596 38.4404 15 37.75 15C37.0596 15 36.5 15.5596 36.5 16.25C36.5 16.9404 37.0596 17.5 37.75 17.5Z" fill="white"/>
<defs>
<filter id="filter0_d" x="0" y="0" width="58" height="58" filterUnits="userSpaceOnUse" color-interpolation-filters="sRGB">
<feFlood flood-opacity="0" result="BackgroundImageFix"/>
<feColorMatrix in="SourceAlpha" type="matrix" values="0 0 0 0 0 0 0 0 0 0 0 0 0 0 0 0 0 0 127 0"/>
<feOffset dy="4"/>
<feGaussianBlur stdDeviation="2"/>
<feColorMatrix type="matrix" values="0 0 0 0 1 0 0 0 0 1 0 0 0 0 1 0 0 0 0.25 0"/>
<feBlend mode="normal" in2="BackgroundImageFix" result="effect1_dropShadow"/>
<feBlend mode="normal" in="SourceGraphic" in2="effect1_dropShadow" result="shape"/>
</filter>
</defs>
</svg>
