<svg width="42" height="42" viewBox="0 0 42 42" fill="none" xmlns="http://www.w3.org/2000/svg">
<path fill-rule="evenodd" clip-rule="evenodd" d="M21 3.5C14.2275 3.5 8.75 8.9775 8.75 15.75C8.75 24.9375 21 38.5 21 38.5C21 38.5 33.25 24.9375 33.25 15.75C33.25 8.9775 27.7725 3.5 21 3.5ZM12.25 15.75C12.25 10.92 16.17 7 21 7C25.83 7 29.75 10.92 29.75 15.75C29.75 20.79 24.71 28.3325 21 33.04C17.36 28.3675 12.25 20.7375 12.25 15.75ZM16.625 15.75C16.625 13.3338 18.5838 11.375 21 11.375C22.563 11.375 24.0073 12.2089 24.7889 13.5625C25.5704 14.9161 25.5704 16.5839 24.7889 17.9375C24.0073 19.2911 22.563 20.125 21 20.125C18.5838 20.125 16.625 18.1662 16.625 15.75Z" fill="#682C0E"/>
</svg>
