<svg width="24" height="24" viewBox="0 0 24 24" fill="none" xmlns="http://www.w3.org/2000/svg">
<path d="M21.5 0H15.157C13.955 0 12.825 0.468 11.975 1.31798L0.852984 12.44C0.303 12.99 0 13.721 0 14.502C0 15.279 0.303 16.01 0.852984 16.56L7.44 23.147C7.98998 23.697 8.721 24 9.50198 24C10.279 24 11.01 23.697 11.56 23.147L22.682 12.025C23.532 11.175 24 10.045 24 8.84302V2.49998C24 1.122 22.878 0 21.5 0ZM23 8.84302C23 9.77803 22.636 10.657 21.976 11.317L10.853 22.44C10.134 23.159 8.87302 23.164 8.148 22.44L1.56 15.852C1.19902 15.492 0.999984 15.012 0.999984 14.498C0.999984 13.988 1.19897 13.508 1.56 13.147L12.682 2.025C13.344 1.36402 14.222 0.999984 15.157 0.999984H21.5C22.327 0.999984 23 1.67297 23 2.49998V8.84302H23Z" fill="#FC8621"/>
<path d="M18.5 3C17.122 3 16 4.122 16 5.49998C16 6.87797 17.122 7.99997 18.5 7.99997C19.878 7.99997 21 6.87802 21 5.49998C21 4.122 19.878 3 18.5 3ZM18.5 6.99998C17.673 6.99998 17 6.327 17 5.49998C17 4.67297 17.673 3.99998 18.5 3.99998C19.327 3.99998 20 4.67297 20 5.49998C20 6.327 19.327 6.99998 18.5 6.99998Z" fill="#FC8621"/>
</svg>
